<svg 
 xmlns="http://www.w3.org/2000/svg"
 xmlns:xlink="http://www.w3.org/1999/xlink"
 width="24px" height="25px">
<path fill-rule="evenodd"  fill="rgb(145, 145, 145)"
 d="M23.462,21.362 L18.589,16.459 C19.774,14.800 20.424,12.820 20.424,10.736 C20.424,8.110 19.409,5.640 17.562,3.783 C15.717,1.926 13.262,0.901 10.651,0.901 C8.041,0.901 5.585,1.924 3.740,3.783 C1.895,5.639 0.878,8.109 0.878,10.736 C0.878,13.363 1.894,15.832 3.740,17.691 C5.585,19.547 8.040,20.571 10.651,20.571 C12.722,20.571 14.688,19.919 16.336,18.726 L21.209,23.628 C21.521,23.942 21.927,24.098 22.335,24.098 C22.743,24.098 23.151,23.942 23.462,23.628 C24.085,23.002 24.085,21.987 23.462,21.362 ZM5.994,15.424 C4.750,14.171 4.065,12.505 4.065,10.736 C4.065,8.966 4.750,7.302 5.994,6.050 C7.238,4.797 8.891,4.108 10.651,4.108 C12.410,4.108 14.064,4.797 15.309,6.050 C16.552,7.302 17.237,8.966 17.237,10.736 C17.237,12.505 16.553,14.170 15.309,15.424 C14.064,16.675 12.411,17.363 10.651,17.363 C8.891,17.362 7.237,16.674 5.994,15.424 Z"/>
</svg>