<svg xmlns="http://www.w3.org/2000/svg" width="52" height="44" viewBox="0 0 52 44">
  <defs>
    <style>
      .cls-1 {
        fill: #dbcdb2;
        fill-rule: evenodd;
      }
    </style>
  </defs>
  <path id="icon" class="cls-1" d="M829.188,922.6l-10.983-2.573a1.058,1.058,0,0,0-.674.07l-13.184,6.128-12.159-5.151a1.03,1.03,0,0,0-.788-0.01l-12.743,5.045a1.069,1.069,0,0,0-.671,1v35.524a1.072,1.072,0,0,0,.459.882,1.034,1.034,0,0,0,.977.113l12.348-4.888,12.192,5.166a1.039,1.039,0,0,0,.843-0.015l13.276-6.171,10.635,2.491a1.05,1.05,0,0,0,.892-0.206,1.076,1.076,0,0,0,.4-0.836V923.643A1.07,1.07,0,0,0,829.188,922.6ZM827.9,957.822l-9.7-2.271a1.057,1.057,0,0,0-.674.07l-13.184,6.128-12.16-5.152a1.015,1.015,0,0,0-.405-0.082,1.032,1.032,0,0,0-.382.072l-11.308,4.478v-33.23l11.679-4.622,12.192,5.165a1.036,1.036,0,0,0,.843-0.015l13.276-6.171,9.819,2.3v33.33h0Zm-39.373-13.006a1.041,1.041,0,0,0-1.428.423c-0.469.871-.745,1.45-0.745,1.45a1.079,1.079,0,0,0,.49,1.428,1.042,1.042,0,0,0,1.405-.5c0.007-.013.262-0.551,0.7-1.355A1.079,1.079,0,0,0,788.526,944.816Zm2.022-4.855c-0.328.394-.647,0.811-0.954,1.237a1.079,1.079,0,0,0,.229,1.494,1.036,1.036,0,0,0,.62.205,1.049,1.049,0,0,0,.851-0.438c0.277-.385.564-0.763,0.86-1.117a1.082,1.082,0,0,0-.122-1.507A1.044,1.044,0,0,0,790.548,939.961Zm7.3-1.47a3.318,3.318,0,0,0-2.7-1.5,3.217,3.217,0,0,0-.614.06,1.069,1.069,0,0,0-.837,1.251,1.058,1.058,0,0,0,1.231.849,1.07,1.07,0,0,1,1.244.636c0.255,0.338.5,0.717,0.758,1.123a1.043,1.043,0,0,0,.891.5,1.03,1.03,0,0,0,.559-0.165,1.078,1.078,0,0,0,.329-1.474C798.422,939.308,798.133,938.877,797.844,938.491Zm13.131,6.148-0.042.066a16.017,16.017,0,0,1-2.494,2.753,1.082,1.082,0,0,0-.147,1.5,1.038,1.038,0,0,0,1.48.149,18.255,18.255,0,0,0,2.862-3.149l0.088-.131a1.081,1.081,0,0,0-.287-1.484A1.042,1.042,0,0,0,810.975,944.639Zm-9.179.491a1.042,1.042,0,0,0-1.454-.323,1.081,1.081,0,0,0-.318,1.477,12.552,12.552,0,0,0,2.9,3.415,1.036,1.036,0,0,0,.626.209,1.048,1.048,0,0,0,.847-0.432,1.082,1.082,0,0,0-.219-1.5A10.577,10.577,0,0,1,801.8,945.13Zm13.507-5.605a1.039,1.039,0,0,0-1.432.408c-0.237.425-.483,0.854-0.727,1.267a1.079,1.079,0,0,0,.362,1.466,1.03,1.03,0,0,0,.54.153,1.044,1.044,0,0,0,.9-0.52c0.254-.429.51-0.874,0.755-1.317A1.08,1.08,0,0,0,815.3,939.525Zm1.824-7.8a1.049,1.049,0,0,0-1.377-.574,1.076,1.076,0,0,0-.565,1.4l0.756,1.838-1.811.769a1.076,1.076,0,0,0-.565,1.4,1.052,1.052,0,0,0,.972.657,1.028,1.028,0,0,0,.406-0.083l1.811-.768,0.756,1.838a1.05,1.05,0,0,0,.971.657,1.021,1.021,0,0,0,.406-0.083,1.075,1.075,0,0,0,.565-1.4l-0.756-1.839,1.808-.767a1.074,1.074,0,0,0,.565-1.4,1.048,1.048,0,0,0-1.377-.575l-1.809.768Z" transform="translate(-778 -920)"/>
</svg>
