<svg 
 xmlns="http://www.w3.org/2000/svg"
 xmlns:xlink="http://www.w3.org/1999/xlink"
 width="18px" height="27px">
<path fill-rule="evenodd"  fill="rgb(95, 95, 95)"
 d="M17.699,25.972 C17.539,26.132 17.350,26.212 17.131,26.212 L11.742,26.212 C11.762,26.119 11.774,26.024 11.774,25.924 L11.774,24.599 L11.774,22.252 C11.774,21.886 11.640,21.568 11.372,21.299 C11.104,21.033 10.786,20.898 10.420,20.898 L7.711,20.898 C7.344,20.898 7.027,21.033 6.759,21.299 C6.490,21.568 6.357,21.886 6.357,22.252 L6.357,24.599 L6.357,25.924 C6.357,26.024 6.369,26.119 6.389,26.212 L1.000,26.212 C0.781,26.212 0.592,26.132 0.433,25.972 C0.273,25.813 0.193,25.624 0.193,25.406 L0.193,4.439 C0.193,4.221 0.273,4.032 0.433,3.872 C0.592,3.713 0.782,3.633 1.000,3.633 L4.828,3.633 L4.828,5.246 L4.828,5.819 C4.828,6.392 5.042,6.909 5.448,7.315 C5.854,7.720 6.371,7.935 6.943,7.935 L11.188,7.935 C11.760,7.935 12.277,7.720 12.683,7.314 C13.089,6.909 13.304,6.392 13.304,5.819 L13.304,5.246 L13.304,3.633 L17.131,3.633 C17.350,3.633 17.539,3.713 17.699,3.872 C17.858,4.032 17.938,4.221 17.938,4.439 L17.938,25.406 C17.938,25.624 17.858,25.813 17.699,25.972 ZM4.172,5.799 C4.172,5.667 4.124,5.552 4.027,5.455 C3.930,5.359 3.815,5.310 3.683,5.310 L2.704,5.310 C2.571,5.310 2.457,5.359 2.360,5.455 C2.263,5.552 2.215,5.667 2.215,5.799 L2.215,6.777 C2.215,6.910 2.263,7.025 2.360,7.121 C2.457,7.219 2.571,7.267 2.704,7.267 L3.683,7.267 C3.815,7.267 3.930,7.219 4.027,7.121 C4.124,7.025 4.172,6.910 4.172,6.777 L4.172,5.799 ZM4.172,9.713 C4.172,9.581 4.124,9.466 4.027,9.369 C3.930,9.272 3.815,9.224 3.683,9.224 L2.704,9.224 C2.571,9.224 2.457,9.272 2.360,9.369 C2.263,9.466 2.215,9.581 2.215,9.713 L2.215,10.691 C2.215,10.824 2.263,10.939 2.360,11.035 C2.457,11.133 2.571,11.181 2.704,11.181 L3.683,11.181 C3.815,11.181 3.930,11.133 4.027,11.035 C4.124,10.939 4.172,10.824 4.172,10.691 L4.172,9.713 ZM4.172,13.627 C4.172,13.495 4.124,13.380 4.027,13.283 C3.930,13.186 3.815,13.138 3.683,13.138 L2.704,13.138 C2.571,13.138 2.457,13.186 2.360,13.283 C2.263,13.380 2.215,13.495 2.215,13.627 L2.215,14.605 C2.215,14.738 2.263,14.853 2.360,14.949 C2.457,15.047 2.571,15.095 2.704,15.095 L3.683,15.095 C3.815,15.095 3.930,15.047 4.027,14.949 C4.124,14.853 4.172,14.738 4.172,14.605 L4.172,13.627 ZM4.172,17.541 C4.172,17.409 4.124,17.294 4.027,17.197 C3.930,17.101 3.815,17.051 3.683,17.051 L2.704,17.051 C2.571,17.051 2.457,17.101 2.360,17.197 C2.263,17.294 2.215,17.409 2.215,17.541 L2.215,18.520 C2.215,18.652 2.263,18.767 2.360,18.863 C2.457,18.960 2.571,19.009 2.704,19.009 L3.683,19.009 C3.815,19.009 3.930,18.960 4.027,18.863 C4.124,18.767 4.172,18.652 4.172,18.520 L4.172,17.541 ZM4.172,21.455 C4.172,21.322 4.124,21.208 4.027,21.111 C3.930,21.014 3.815,20.966 3.683,20.966 L2.704,20.966 C2.571,20.966 2.457,21.014 2.360,21.111 C2.263,21.208 2.215,21.322 2.215,21.455 L2.215,22.434 C2.215,22.566 2.263,22.681 2.360,22.777 C2.457,22.875 2.571,22.922 2.704,22.922 L3.683,22.922 C3.815,22.922 3.930,22.875 4.027,22.777 C4.124,22.681 4.172,22.566 4.172,22.434 L4.172,21.455 ZM8.087,9.713 C8.087,9.581 8.038,9.466 7.942,9.369 C7.845,9.272 7.730,9.224 7.597,9.224 L6.619,9.224 C6.486,9.224 6.372,9.272 6.275,9.369 C6.178,9.466 6.130,9.581 6.130,9.713 L6.130,10.691 C6.130,10.824 6.178,10.939 6.275,11.035 C6.372,11.133 6.486,11.181 6.619,11.181 L7.597,11.181 C7.730,11.181 7.845,11.133 7.942,11.035 C8.038,10.939 8.087,10.824 8.087,10.691 L8.087,9.713 ZM8.087,13.627 C8.087,13.495 8.038,13.380 7.942,13.283 C7.845,13.186 7.730,13.138 7.597,13.138 L6.619,13.138 C6.486,13.138 6.372,13.186 6.275,13.283 C6.178,13.380 6.130,13.495 6.130,13.627 L6.130,14.605 C6.130,14.738 6.178,14.853 6.275,14.949 C6.372,15.047 6.486,15.095 6.619,15.095 L7.597,15.095 C7.730,15.095 7.845,15.047 7.942,14.949 C8.038,14.853 8.087,14.738 8.087,14.605 L8.087,13.627 ZM8.087,17.541 C8.087,17.409 8.038,17.294 7.942,17.197 C7.845,17.101 7.730,17.051 7.597,17.051 L6.619,17.051 C6.486,17.051 6.372,17.101 6.275,17.197 C6.178,17.294 6.130,17.409 6.130,17.541 L6.130,18.519 C6.130,18.652 6.178,18.767 6.275,18.863 C6.372,18.960 6.486,19.009 6.619,19.009 L7.597,19.009 C7.730,19.009 7.845,18.960 7.942,18.863 C8.038,18.767 8.087,18.652 8.087,18.519 L8.087,17.541 ZM12.001,9.713 C12.001,9.581 11.953,9.466 11.856,9.369 C11.759,9.272 11.644,9.224 11.512,9.224 L10.533,9.224 C10.401,9.224 10.286,9.272 10.189,9.369 C10.093,9.466 10.044,9.581 10.044,9.713 L10.044,10.691 C10.044,10.824 10.093,10.939 10.189,11.035 C10.286,11.133 10.401,11.181 10.533,11.181 L11.512,11.181 C11.644,11.181 11.759,11.133 11.856,11.035 C11.953,10.939 12.001,10.824 12.001,10.691 L12.001,9.713 ZM12.001,13.627 C12.001,13.495 11.953,13.380 11.856,13.283 C11.759,13.186 11.644,13.138 11.512,13.138 L10.533,13.138 C10.401,13.138 10.286,13.186 10.189,13.283 C10.093,13.380 10.044,13.495 10.044,13.627 L10.044,14.605 C10.044,14.738 10.093,14.853 10.189,14.949 C10.286,15.047 10.401,15.095 10.533,15.095 L11.512,15.095 C11.644,15.095 11.759,15.047 11.856,14.949 C11.953,14.853 12.001,14.738 12.001,14.605 L12.001,13.627 ZM12.002,17.541 C12.002,17.409 11.953,17.294 11.856,17.197 C11.759,17.101 11.645,17.051 11.512,17.051 L10.534,17.051 C10.401,17.051 10.287,17.101 10.190,17.197 C10.093,17.294 10.044,17.409 10.044,17.541 L10.044,18.520 C10.044,18.652 10.093,18.767 10.190,18.863 C10.287,18.960 10.401,19.009 10.534,19.009 L11.512,19.009 C11.645,19.009 11.759,18.960 11.856,18.863 C11.953,18.767 12.002,18.652 12.002,18.520 L12.002,17.541 ZM15.917,5.799 C15.917,5.667 15.868,5.552 15.771,5.455 C15.674,5.359 15.560,5.310 15.427,5.310 L14.448,5.310 C14.316,5.310 14.201,5.359 14.104,5.455 C14.007,5.552 13.959,5.667 13.959,5.799 L13.959,6.777 C13.959,6.910 14.007,7.025 14.104,7.121 C14.201,7.219 14.316,7.267 14.448,7.267 L15.427,7.267 C15.560,7.267 15.674,7.219 15.771,7.121 C15.868,7.025 15.917,6.910 15.917,6.777 L15.917,5.799 ZM15.917,9.713 C15.917,9.581 15.868,9.466 15.771,9.369 C15.674,9.272 15.560,9.224 15.427,9.224 L14.448,9.224 C14.316,9.224 14.201,9.272 14.104,9.369 C14.007,9.466 13.959,9.581 13.959,9.713 L13.959,10.691 C13.959,10.824 14.007,10.939 14.104,11.035 C14.201,11.133 14.316,11.181 14.448,11.181 L15.427,11.181 C15.560,11.181 15.674,11.133 15.771,11.035 C15.868,10.939 15.917,10.824 15.917,10.691 L15.917,9.713 ZM15.917,13.627 C15.917,13.495 15.868,13.380 15.771,13.283 C15.674,13.186 15.560,13.138 15.427,13.138 L14.448,13.138 C14.316,13.138 14.201,13.186 14.104,13.283 C14.007,13.380 13.959,13.495 13.959,13.627 L13.959,14.605 C13.959,14.738 14.007,14.853 14.104,14.949 C14.201,15.047 14.316,15.095 14.448,15.095 L15.427,15.095 C15.560,15.095 15.674,15.047 15.771,14.949 C15.868,14.853 15.917,14.738 15.917,14.605 L15.917,13.627 ZM15.917,17.541 C15.917,17.409 15.868,17.294 15.771,17.197 C15.674,17.101 15.560,17.051 15.427,17.051 L14.448,17.051 C14.316,17.051 14.201,17.101 14.104,17.197 C14.007,17.294 13.959,17.409 13.959,17.541 L13.959,18.520 C13.959,18.652 14.007,18.767 14.104,18.863 C14.201,18.960 14.316,19.009 14.448,19.009 L15.427,19.009 C15.560,19.009 15.674,18.960 15.771,18.863 C15.868,18.767 15.917,18.652 15.917,18.520 L15.917,17.541 ZM15.917,21.455 C15.917,21.322 15.868,21.208 15.771,21.111 C15.674,21.014 15.560,20.966 15.427,20.966 L14.448,20.966 C14.316,20.966 14.201,21.014 14.104,21.111 C14.007,21.208 13.959,21.322 13.959,21.455 L13.959,22.434 C13.959,22.566 14.007,22.681 14.104,22.777 C14.201,22.875 14.316,22.922 14.448,22.922 L15.427,22.922 C15.560,22.922 15.674,22.875 15.771,22.777 C15.868,22.681 15.917,22.566 15.917,22.434 L15.917,21.455 ZM12.001,6.791 C11.769,6.988 11.500,7.092 11.188,7.092 L10.165,7.092 L7.966,7.092 L6.943,7.092 C6.631,7.092 6.362,6.988 6.131,6.791 C6.102,6.766 6.071,6.747 6.044,6.719 C5.794,6.470 5.670,6.170 5.670,5.819 L5.670,5.246 L5.670,3.633 L5.670,1.576 C5.670,1.225 5.794,0.925 6.044,0.676 C6.293,0.427 6.593,0.302 6.943,0.302 L11.188,0.302 C11.539,0.302 11.839,0.427 12.088,0.676 C12.337,0.925 12.462,1.225 12.462,1.576 L12.462,3.633 L12.462,5.246 L12.462,5.819 C12.462,6.170 12.337,6.470 12.088,6.719 C12.060,6.747 12.030,6.767 12.001,6.791 ZM11.328,5.310 L11.328,5.246 L11.328,3.633 L11.328,1.717 C11.328,1.640 11.300,1.575 11.244,1.518 C11.189,1.462 11.122,1.435 11.046,1.435 L10.480,1.435 C10.403,1.435 10.337,1.462 10.281,1.518 C10.225,1.574 10.197,1.640 10.197,1.717 L10.197,3.132 L7.933,3.132 L7.933,1.717 C7.933,1.640 7.905,1.575 7.849,1.518 C7.793,1.462 7.727,1.435 7.650,1.435 L7.085,1.435 C7.008,1.435 6.942,1.462 6.886,1.518 C6.830,1.574 6.802,1.640 6.802,1.717 L6.802,3.633 L6.802,3.633 L6.802,5.246 L6.802,5.310 L6.802,5.678 C6.802,5.754 6.830,5.821 6.886,5.877 C6.942,5.933 7.008,5.961 7.085,5.961 L7.651,5.961 C7.727,5.961 7.794,5.933 7.850,5.877 C7.906,5.821 7.934,5.754 7.934,5.678 L7.934,5.448 L7.934,5.246 L7.934,4.263 L10.197,4.263 L10.197,5.246 L10.197,5.448 L10.197,5.678 C10.197,5.754 10.225,5.821 10.281,5.877 C10.337,5.933 10.403,5.961 10.480,5.961 L11.046,5.961 C11.122,5.961 11.188,5.933 11.244,5.877 C11.300,5.821 11.328,5.754 11.328,5.678 L11.328,5.310 Z"/>
</svg>