<svg 
 xmlns="http://www.w3.org/2000/svg"
 xmlns:xlink="http://www.w3.org/1999/xlink"
 width="15px" height="12px">
<path fill-rule="evenodd"  fill="rgb(145, 145, 145)"
 d="M14.796,9.213 C14.796,9.536 14.705,9.835 14.559,10.099 L9.910,4.897 L14.509,0.873 C14.688,1.157 14.796,1.491 14.796,1.851 L14.796,9.213 ZM7.433,5.841 L13.832,0.242 C13.570,0.098 13.274,0.011 12.955,0.011 L1.912,0.011 C1.592,0.011 1.296,0.098 1.035,0.242 L7.433,5.841 ZM9.217,5.503 L7.736,6.799 C7.650,6.875 7.542,6.913 7.433,6.913 C7.325,6.913 7.217,6.875 7.131,6.799 L5.649,5.503 L0.941,10.771 C1.223,10.948 1.554,11.054 1.912,11.054 L12.955,11.054 C13.313,11.054 13.644,10.948 13.926,10.771 L9.217,5.503 ZM0.358,0.873 C0.179,1.157 0.071,1.491 0.071,1.851 L0.071,9.213 C0.071,9.536 0.161,9.835 0.307,10.099 L4.956,4.896 L0.358,0.873 Z"/>
</svg>