<svg 
 xmlns="http://www.w3.org/2000/svg"
 xmlns:xlink="http://www.w3.org/1999/xlink"
 width="17px" height="17px">
<path fill-rule="evenodd"  fill="rgb(145, 145, 145)"
 d="M6.807,10.222 C8.195,11.603 9.802,12.922 10.433,12.285 C11.336,11.373 11.893,10.579 13.898,12.182 C15.902,13.785 14.371,14.863 13.496,15.747 C12.486,16.766 8.704,15.818 4.956,12.090 C1.207,8.362 0.232,4.579 1.243,3.560 C2.118,2.676 3.183,1.134 4.797,3.131 C6.411,5.127 5.623,5.691 4.720,6.603 C4.089,7.240 5.418,8.840 6.807,10.222 ZM8.820,3.632 C8.820,3.632 8.401,3.567 8.108,3.861 C7.806,4.163 7.793,4.684 8.111,5.003 C8.299,5.191 8.564,5.231 8.564,5.231 C9.081,5.328 9.859,5.493 10.689,6.323 C11.517,7.154 11.681,7.934 11.778,8.452 C11.778,8.452 11.818,8.718 12.006,8.906 C12.324,9.225 12.844,9.211 13.146,8.909 C13.439,8.615 13.374,8.196 13.374,8.196 C13.210,7.147 12.702,6.051 11.832,5.178 C10.960,4.305 9.867,3.797 8.820,3.632 ZM12.749,4.258 C14.268,5.781 14.916,7.508 14.705,8.909 C14.705,8.909 14.631,9.352 14.920,9.642 C15.246,9.967 15.761,9.948 16.066,9.644 C16.261,9.448 16.304,9.129 16.304,9.129 C16.478,7.919 16.259,5.484 13.892,3.113 C11.525,0.742 9.096,0.522 7.889,0.696 C7.889,0.696 7.571,0.739 7.375,0.935 C7.070,1.240 7.052,1.757 7.377,2.083 C7.666,2.372 8.109,2.298 8.109,2.298 C9.506,2.087 11.230,2.736 12.749,4.258 Z"/>
</svg>