<svg xmlns="http://www.w3.org/2000/svg" xmlns:xlink="http://www.w3.org/1999/xlink" width="64.72" height="47.782" viewBox="0 0 64.72 47.782">
  <defs>
    <style>
      .cls-1 {
        fill-rule: evenodd;
        filter: url(#filter);
      }
    </style>
    <filter id="filter" x="1395.78" y="918.406" width="64.72" height="47.782" filterUnits="userSpaceOnUse">
      <feFlood result="flood" flood-color="#464646"/>
      <feComposite result="composite" operator="in" in2="SourceGraphic"/>
      <feBlend result="blend" in2="SourceGraphic"/>
    </filter>
  </defs>
  <path id="icon" class="cls-1" d="M1452.2,936.162a18.461,18.461,0,0,1,.57,4.466c0,11.8-11.1,21.65-25.71,23.764a29.935,29.935,0,0,0,10.24,1.786,30.292,30.292,0,0,0,9.73-1.586,39.051,39.051,0,0,0,11.24,1.457,25.754,25.754,0,0,1-3.86-5.43c3.76-3.028,6.08-7.04,6.08-11.458C1460.49,943.937,1457.26,939.281,1452.2,936.162Zm-53.54,24.922a2.086,2.086,0,0,0,1.8.979h0.1c2.14-.093,6.4-1.379,10.91-3.965,2.42,0.386,7.82,1.107,9.71,1.107,14.25,0,25.4-8.954,25.4-20.392,0-11.248-11.39-20.395-25.4-20.395s-25.39,9.144-25.39,20.392c0,5.233,2.55,10.294,7.04,14.077a26.793,26.793,0,0,1-3.97,6.232A1.685,1.685,0,0,0,1398.66,961.084Zm1.18-22.274c0-9.228,9.57-16.738,21.35-16.738s21.35,7.51,21.35,16.738c0,9.537-9.18,16.738-21.35,16.738-1.6,0-7.97-.84-9.72-1.171a2.192,2.192,0,0,0-1.53.267,35.607,35.607,0,0,1-4.8,2.4,30.309,30.309,0,0,0,2-4.079,1.728,1.728,0,0,0-.62-2.029C1402.21,947.74,1399.84,943.428,1399.84,938.81Z" transform="translate(-1395.78 -918.406)"/>
</svg>
