<svg xmlns="http://www.w3.org/2000/svg" width="58" height="46.969" viewBox="0 0 58 46.969">
  <defs>
    <style>
      .cls-1 {
        fill: #464646;
        fill-rule: evenodd;
      }
    </style>
  </defs>
  <path id="İcon" class="cls-1" d="M1111.05,919.385l-0.15-.636c0.86-.2,1.73-0.358,2.6-0.479l0.1,0.647C1112.74,919.035,1111.89,919.193,1111.05,919.385Zm12.86-.038q-1.26-.285-2.55-0.449l0.08-.649c0.88,0.113,1.76.268,2.61,0.46Zm-7.73-.664-0.03-.653c0.88-.041,1.78-0.041,2.65-0.006l-0.02.654C1117.91,918.642,1117.04,918.642,1116.18,918.683Zm-23.97,43.936c0.45,0.755.94,1.494,1.46,2.2l0.53-.386a25.718,25.718,0,0,1-1.43-2.151Zm-2.32-4.752c0.32,0.827.67,1.644,1.05,2.427l0.59-.285c-0.37-.765-0.72-1.564-1.02-2.371Zm-1.41-5.088c0.16,0.866.36,1.733,0.59,2.575l0.63-.174c-0.23-.825-0.42-1.672-0.58-2.519Zm0.18-5.258H1088c0,0.877.04,1.765,0.12,2.641l0.65-.059C1088.7,949.245,1088.66,948.378,1088.66,947.521Zm0.45-5.143-0.65-.116c-0.15.863-.27,1.743-0.35,2.621l0.65,0.056C1088.84,944.081,1088.95,943.218,1089.11,942.378Zm1.36-4.983-0.62-.227c-0.31.83-.58,1.674-0.81,2.514l0.63,0.173C1089.9,939.035,1090.17,938.208,1090.47,937.4Zm2.24-4.654-0.57-.333c-0.45.752-.87,1.536-1.25,2.33l0.59,0.28C1091.85,934.245,1092.27,933.477,1092.71,932.741Zm0.89-2.54,0.53,0.383c0.51-.695,1.05-1.375,1.62-2.023l-0.5-.429C1094.67,928.793,1094.12,929.491,1093.6,930.2Zm5.47-5.725c-0.68.545-1.35,1.132-1.99,1.739l0.45,0.475c0.63-.6,1.28-1.174,1.95-1.705Zm38.85,1.617c-0.64-.6-1.31-1.183-2-1.733l-0.41.514c0.68,0.535,1.34,1.1,1.96,1.693Zm-34.13-3.97-0.31-.571c-0.77.413-1.53,0.872-2.27,1.362l0.36,0.541C1102.3,922.977,1103.04,922.531,1103.79,922.123Zm29.98,0.689c-0.74-.48-1.5-0.934-2.28-1.35l-0.31.576c0.76,0.4,1.51.85,2.23,1.319Zm-25.22-2.734-0.21-.619c-0.84.276-1.67,0.592-2.47,0.937l0.26,0.6C1106.91,920.658,1107.73,920.351,1108.55,920.078Zm20.55,0.246c-0.81-.339-1.65-0.651-2.49-0.921l-0.2.622c0.83,0.263,1.64.567,2.43,0.9Zm16.39,13.148-1.57-1.567,0.64-5.338-0.72-.711-1.85,4.126-1.07-1.067a0.9,0.9,0,0,0-.36-0.208l0.37-1.782-0.58-.574-0.86,2-2,.852,0.57,0.574,1.79-.36a1.06,1.06,0,0,0,.21.352l1.08,1.069-4.15,1.85,0.72,0.715,5.36-.643,1.57,1.567a1.689,1.689,0,0,0,1.08.5,0.27,0.27,0,0,0,.2-0.072,0.234,0.234,0,0,0,.07-0.193A1.718,1.718,0,0,0,1145.49,933.472Zm-27.86-6.74a19.131,19.131,0,1,0,19.2,19.131A19.185,19.185,0,0,0,1117.63,926.732Zm15.65,22.25a1.9,1.9,0,0,1,.57,1.025,16.764,16.764,0,0,1-24.2,10.526c0.02-.1.05-0.209,0.07-0.321,0.14-.68,1.2-1.007,1.65-1.457s1.32-.707,1.59-1.283c0.18-.377-0.07-0.861.08-1.213a3.931,3.931,0,0,1,.76-0.759,4.573,4.573,0,0,0,.91-2.567h-2.33c-0.73,0-.59-0.866-0.59-1.4a2,2,0,0,0-.13-0.907,1.862,1.862,0,0,0-.96-0.353,1.87,1.87,0,0,1-.98-1.267c-0.06-.354-0.05-0.614-0.5-0.6s-0.84.369-1.25,0.369h-4.95a1.434,1.434,0,0,0,.07.863c0.42,0.208.84,0.418,1.25,0.626a3.291,3.291,0,0,1,1.12,1.7c0.3,0.6.64,1.187,0.9,1.8a6.817,6.817,0,0,0,1.16,2.215,2.169,2.169,0,0,1,.84.559,3.009,3.009,0,0,1-.11,1.426c-0.11.485-.25,0.965-0.38,1.446a16.734,16.734,0,0,1-6.72-10.587c0.24-.018.47-0.049,0.61-0.049a0.791,0.791,0,0,0,.79-0.359,0.94,0.94,0,0,0,.47-0.765V946.28c0.56,0.277,1.12.555,1.67,0.831a0.938,0.938,0,0,1,1.06-.851c0.66-.109,1.1-0.812,1.71-0.812a3.23,3.23,0,0,1,1.19.248,1.423,1.423,0,0,0,.82.1c0.34-.108.26-0.728,0.38-1.007a1.426,1.426,0,0,1,.91-1.011c0.51-.041,1.16-0.269.61-0.821a9.147,9.147,0,0,1-1.47-2.126,3.03,3.03,0,0,0-.52-1.048c-0.65-.484-1.62.172-2.11,0.607-0.27.245,0.16,0.81-.22,0.968a2.588,2.588,0,0,1-2.03.165,4.437,4.437,0,0,0-.95-0.637c-0.27-.048-0.21-0.124-0.21-0.424v-1.521c0-.21.06-0.127,0.25-0.182,0.75-.216.31-1.2,1.06-1.209,0.87-.014.01-1.489-0.23-1.789a0.7,0.7,0,0,0-.4-0.279,16.752,16.752,0,0,1,25.32-1,25.808,25.808,0,0,1-2.53,2.575,9.638,9.638,0,0,1-1.54.792,3.98,3.98,0,0,1-1.73.117c-0.15,0-1.84-.023-1.84.021,0,0.5.25,1.517-.23,1.759a6.159,6.159,0,0,0-1.69.965,1,1,0,0,0-.51.655h0a0.5,0.5,0,0,0-.26-0.071,4.233,4.233,0,0,0-2.04.409,1.039,1.039,0,0,0-.31.951,2.076,2.076,0,0,1-.49,1.191,1.021,1.021,0,0,0-.31,1.05l1.95-.215a1.231,1.231,0,0,0,.55-0.1,2.014,2.014,0,0,1,.02-0.816c0.25-.245.5-0.492,0.74-0.739,0.15-.15.43,0.277,0.55,0.4,0.23,0.225.45,0.273,0.21,0.51s-0.46.455-.68,0.681a4.73,4.73,0,0,0,.83-0.019,2.642,2.642,0,0,1,.84-1.645,1.144,1.144,0,0,1,1.59-.067,1.367,1.367,0,0,1,.08.9,11.143,11.143,0,0,0,.03,1.664,1.335,1.335,0,0,0,.97-0.154c0.97-.811,2.23-0.616,3.17-1.51,0.28,0.554.56,1.109,0.83,1.664-0.66.22-1.32,0.44-1.99,0.66a1.974,1.974,0,0,1-.52.156,4.93,4.93,0,0,0-.52-0.864c-0.27-.351-0.34-0.047-0.29.276a2.844,2.844,0,0,0,.8,1.416,7.037,7.037,0,0,1,.85,1.683c-0.05-1.022,1.44.6,1.67,0.832,0.36-.352.71-0.7,1.06-1.056,0.18-.176.35-0.349,0.53-0.523,0.14-.142-0.02-0.182-0.13-0.335-0.59-.82.93-0.581,1.39-0.581a2.876,2.876,0,0,1,2.16.831C1132.26,947.9,1133.09,948.8,1133.28,948.982Zm-14.95-9.357c-0.19.185-.38,0.369-0.56,0.554a0.6,0.6,0,0,0-.52.3c-0.01.27-.02,0.538-0.04,0.808,0.37-.181.73-0.363,1.09-0.543A3.426,3.426,0,0,0,1118.33,939.625Zm1.65-.832c0.21,0,.57.116,0.57-0.13v-0.015a0.259,0.259,0,0,0,.23.139c-0.07.279-.14,0.559-0.23,0.838,0.26-.253.51-0.5,0.76-0.759a1.331,1.331,0,0,0,.08-0.821V936.3c-0.02.032-.05,0.083-0.08,0.143-0.01-.117-0.02-0.232-0.03-0.35-0.03.194-.06,0.387-0.1,0.581a7.249,7.249,0,0,0-.63,1.464V936.3C1120.38,936.634,1119.09,938.793,1119.98,938.793Zm7.48,13.289a2.941,2.941,0,0,0,1.44-.812l-1.86-.616a1.3,1.3,0,0,1-1.03-.975,4.291,4.291,0,0,0-.85-1.3c-0.3-.3-1.27-0.959-1.27-1.395,0-.664.13-0.7-0.49-0.7h-6.19a9.316,9.316,0,0,0-1.36,1.68c-0.66,1.1.16,1.642,0.89,2.43,0.77,0.842.47,2.272,1.91,2.524a9.739,9.739,0,0,0,1.62.02c0.07,0,1.21-.161,1.1-0.361a4.7,4.7,0,0,1,.1,1.082q0.15,0.885.36,1.759a10.056,10.056,0,0,1,.39,2.1c0,0.733.77,1.179,1.27,1.681a0.831,0.831,0,0,0,.57.4h1.42c0.23,0-.2-2.884.54-3.249a1.33,1.33,0,0,0,.75-0.229c0.09-.164-0.01-0.365.08-0.528,0.21-.4.7-0.009,0.75-0.666a3.547,3.547,0,0,0-.44-2.054C1126.7,952.346,1126.85,952.184,1127.46,952.082Zm-12.76-17.458a10.89,10.89,0,0,0-1.37-1.153,2.964,2.964,0,0,0-1.96-.5c-0.38,0-.77-0.026-1.14,0-0.17.014-.1,0.195-0.15,0.315a9.585,9.585,0,0,1-2.05,2.176c0.8,0,1.25,1.657,1.55,2.262a2.333,2.333,0,0,1,.12,1.148,1.1,1.1,0,0,0,.36,1.109c0.41,0.408.38,0.571,0.78,0.169s0.81-.81,1.22-1.215a1.413,1.413,0,0,0,.14-1.061c0-.534-0.19-0.748.36-0.748a1.593,1.593,0,0,0,1.14-.25,1.81,1.81,0,0,1,.8-0.562c0.39-.076,1.21-0.215,1.04-0.852A3.323,3.323,0,0,0,1114.7,934.624Z" transform="translate(-1088 -918.031)"/>
</svg>
